HIERARCHY
ROOT Hips
{
	OFFSET 0.000000 0.000000 0.000000
	CHANNELS 6 Xposition Yposition Zposition Xrotation Yrotation Zrotation
	JOINT LeftUpLeg_virtual
	{
		OFFSET 0.000000 0.000000 0.000000
		CHANNELS 3 Xrotation Yrotation Zrotation
		JOINT LeftUpLeg
		{
			OFFSET 11.394100 -6.187798 -0.413800
			CHANNELS 3 Xrotation Yrotation Zrotation
			JOINT LeftLeg
			{
				OFFSET 0.430247 -32.302673 3.732800
				CHANNELS 3 Xrotation Yrotation Zrotation
				JOINT LeftFoot
				{
					OFFSET -0.430247 -48.264931 -6.423300
					CHANNELS 3 Xrotation Yrotation Zrotation
					JOINT LeftToeBase
					{
						OFFSET 4.230900 -16.068199 23.438400
						CHANNELS 3 Xrotation Yrotation Zrotation
						JOINT LeftToe_End
						{
							OFFSET 4.510700 0.695400 19.974600
							CHANNELS 3 Xrotation Yrotation Zrotation
							End Site
							{
								OFFSET 0 0 0
							}
						}
					}
				}
			}
		}
	}
	JOINT RightUpLeg_virtual
	{
		OFFSET 0.000000 0.000000 0.000000
		CHANNELS 3 Xrotation Yrotation Zrotation
		JOINT RightUpLeg
		{
			OFFSET -11.333700 -6.187798 -0.413800
			CHANNELS 3 Xrotation Yrotation Zrotation
			JOINT RightLeg
			{
				OFFSET -0.430392 -32.302628 3.733000
				CHANNELS 3 Xrotation Yrotation Zrotation
				JOINT RightFoot
				{
					OFFSET 0.430392 -48.264973 -6.423500
					CHANNELS 3 Xrotation Yrotation Zrotation
					JOINT RightToeBase
					{
						OFFSET -4.230900 -16.068199 23.438400
						CHANNELS 3 Xrotation Yrotation Zrotation
						JOINT RightToe_End
						{
							OFFSET -4.510700 0.695400 19.974600
							CHANNELS 3 Xrotation Yrotation Zrotation
							End Site
							{
								OFFSET 0 0 0
							}
						}
					}
				}
			}
		}
	}
	JOINT Spine_virtual
	{
		OFFSET 0.000000 0.000000 0.000000
		CHANNELS 3 Xrotation Yrotation Zrotation
		JOINT Spine
		{
			OFFSET -0.002400 12.777504 0.315300
			CHANNELS 3 Xrotation Yrotation Zrotation
			JOINT Spine1
			{
				OFFSET -0.002067 5.816869 0.032633
				CHANNELS 3 Xrotation Yrotation Zrotation
				JOINT Spine1_split
				{
					OFFSET -0.002067 5.816869 0.032633
					CHANNELS 3 Xrotation Yrotation Zrotation
					JOINT Spine2
					{
						OFFSET -0.002067 5.816869 0.032633
						CHANNELS 3 Xrotation Yrotation Zrotation
						JOINT Neck_virtual
						{
							OFFSET 0.000000 0.000000 0.000000
							CHANNELS 3 Xrotation Yrotation Zrotation
							JOINT Neck
							{
								OFFSET -0.003700 21.199493 -0.826900
								CHANNELS 3 Xrotation Yrotation Zrotation
								JOINT Head
								{
									OFFSET 0.000000 20.442200 4.834800
									CHANNELS 3 Xrotation Yrotation Zrotation
									JOINT HeadTop_End
									{
										OFFSET 0.000000 34.668396 4.968400
										CHANNELS 3 Xrotation Yrotation Zrotation
										End Site
										{
											OFFSET 0 0 0
										}
									}
								}
							}
						}
						JOINT LeftShoulder_virtual
						{
							OFFSET 0.000000 0.000000 0.000000
							CHANNELS 3 Xrotation Yrotation Zrotation
							JOINT LeftShoulder
							{
								OFFSET 3.288150 8.794197 -1.372250
								CHANNELS 3 Xrotation Yrotation Zrotation
								JOINT LeftShoulder_split
								{
									OFFSET 3.288150 8.794197 -1.372250
									CHANNELS 3 Xrotation Yrotation Zrotation
									JOINT LeftArm
									{
										OFFSET 11.953299 -2.279007 -0.146200
										CHANNELS 3 Xrotation Yrotation Zrotation
										JOINT LeftForeArm
										{
											OFFSET 18.448900 0.000000 0.000000
											CHANNELS 3 Xrotation Yrotation Zrotation
											JOINT LeftHand
											{
												OFFSET 29.527798 0.000000 0.000000
												CHANNELS 3 Xrotation Yrotation Zrotation
												End Site
												{
													OFFSET 0 0 0
												}
											}
										}
									}
								}
							}
						}
						JOINT RightShoulder_virtual
						{
							OFFSET 0.000000 0.000000 0.000000
							CHANNELS 3 Xrotation Yrotation Zrotation
							JOINT RightShoulder
							{
								OFFSET -3.249400 8.794197 -1.372250
								CHANNELS 3 Xrotation Yrotation Zrotation
								JOINT RightShoulder_split
								{
									OFFSET -3.249400 8.794197 -1.372250
									CHANNELS 3 Xrotation Yrotation Zrotation
									JOINT RightArm
									{
										OFFSET -11.953299 -2.279007 -0.146200
										CHANNELS 3 Xrotation Yrotation Zrotation
										JOINT RightForeArm
										{
											OFFSET -18.448900 0.000000 0.000000
											CHANNELS 3 Xrotation Yrotation Zrotation
											JOINT RightHand
											{
												OFFSET -29.527802 0.000000 0.000000
												CHANNELS 3 Xrotation Yrotation Zrotation
												End Site
												{
													OFFSET 0 0 0
												}
											}
										}
									}
								}
							}
						}
					}
				}
			}
		}
	}
}
MOTION
Frames: 5
Frame Time: 0.03333333
1.631167 91.045502 0.956783 0.000000 0.000000 0.000000 7.779913 -66.934078 9.586720 -35.186942 11.979434 22.945908 34.324450 -4.228815 -0.084281 -4.839282 -3.802502 -14.725410 1.373606 0.319319 0.845437 0.000000 0.000000 0.000000 5.547645 -66.069062 8.161006 -25.372502 -10.362426 -28.266823 25.646727 -4.609517 -4.061292 -1.553428 -2.565548 20.627325 -3.302751 0.664856 -0.011740 0.000000 0.000000 0.000000 2.950991 -64.163965 5.424404 16.354324 0.478738 -4.235772 4.582990 0.825570 -2.660020 0.531316 2.432005 0.603541 0.000000 0.000000 0.000000 4.211927 0.536617 -2.631191 -4.989273 2.986281 2.965577 -15.662220 52.788046 -3.310310 0.000000 0.000000 0.000000 4.800383 0.194027 -2.691885 2.598181 -3.364306 -11.193868 -3.310510 -5.693933 1.576184 -37.739910 28.641237 -33.339827 3.186091 -42.868214 4.461909 0.000000 0.000000 0.000000 5.371266 0.635008 -2.422080 1.876052 5.752919 9.240805 4.230582 4.502383 0.734884 4.646401 -9.717990 55.013878 -20.247846 35.297147 13.453167 0.000000 0.000000 0.000000 
1.165612 91.549828 2.872684 0.000000 0.000000 0.000000 7.119373 -67.453924 8.974783 -35.350535 12.603192 22.914721 34.818716 -4.144903 0.124031 -4.641623 -3.402711 -15.000468 0.921027 0.207243 1.372000 0.000000 0.000000 0.000000 6.552146 -67.113569 8.742513 -24.966006 -9.796080 -28.025702 26.320335 -4.942876 -3.973088 -0.736166 -2.942093 19.843194 -3.262032 0.345629 0.768741 0.000000 0.000000 0.000000 3.945770 -64.645275 5.971188 16.221962 0.307767 -4.183267 4.513408 0.679674 -2.579221 0.364571 2.443822 0.568514 0.000000 0.000000 0.000000 3.919934 0.446024 -2.575425 -5.211101 3.149216 2.516943 -14.794475 52.666226 -3.944648 0.000000 0.000000 0.000000 4.699261 0.042404 -2.648971 2.640645 -3.823126 -10.858303 -3.594784 -5.626285 1.820188 -38.651962 28.758392 -32.737647 3.102439 -43.876613 4.578674 0.000000 0.000000 0.000000 5.305130 0.590983 -2.372883 1.851695 6.345930 9.607567 3.581113 3.754836 0.361057 3.496252 -9.845836 54.519072 -19.764529 33.827072 12.948065 0.000000 0.000000 0.000000 
0.640336 92.067688 5.283512 0.000000 0.000000 0.000000 6.732599 -68.213352 8.536638 -35.114071 13.338451 22.612193 35.621933 -3.860337 0.229884 -5.241464 -2.659829 -14.475316 0.091431 0.101697 1.908515 0.000000 0.000000 0.000000 7.669275 -68.184481 9.405292 -25.063591 -8.183714 -27.617182 28.198112 -5.353051 -3.621466 -0.412386 -4.003382 18.809976 -3.581833 0.042572 1.765477 0.000000 0.000000 0.000000 5.362193 -65.179095 6.846987 15.981572 0.110683 -4.062233 4.233434 0.290452 -2.413315 0.307472 2.353690 0.426786 0.000000 0.000000 0.000000 3.430380 0.066152 -2.381884 -5.227734 3.763826 1.978678 -13.856541 52.623090 -4.707369 0.000000 0.000000 0.000000 4.362121 -0.376141 -2.488926 2.674390 -4.275801 -10.625905 -3.761757 -5.181394 1.893366 -40.173031 28.579127 -31.743113 4.383137 -43.745603 5.682647 0.000000 0.000000 0.000000 4.947407 0.259519 -2.204682 1.903847 7.015067 10.003212 2.985263 3.106053 0.077708 1.350200 -9.821659 53.720944 -18.717886 30.790377 11.845934 0.000000 0.000000 0.000000 
0.105608 92.284233 7.795616 0.000000 0.000000 0.000000 6.856029 -68.948902 8.483540 -34.903670 13.977488 22.189674 36.922661 -3.440589 0.214572 -6.577534 -1.762946 -13.162803 -0.543791 0.026818 2.182181 0.000000 0.000000 0.000000 9.052851 -68.958020 10.324599 -25.967256 -5.888981 -26.980840 30.429473 -5.578693 -3.087009 -0.789428 -5.279672 17.874889 -3.854297 -0.105500 2.532608 0.000000 0.000000 0.000000 6.897438 -65.523316 7.846096 15.714592 -0.129987 -3.893080 3.810200 -0.293192 -2.181104 0.353992 2.107871 0.361958 0.000000 0.000000 0.000000 2.857821 -0.543297 -2.088419 -5.023392 4.717872 1.415983 -13.108656 52.545304 -5.348162 0.000000 0.000000 0.000000 3.862503 -0.996688 -2.238596 2.702603 -4.699275 -10.535789 -3.956385 -4.484131 1.905073 -41.877112 27.996771 -30.718704 6.634065 -42.425645 7.466560 0.000000 0.000000 0.000000 4.401423 -0.319984 -1.961664 2.053478 7.592958 10.400147 2.587793 2.711388 -0.096271 -1.211156 -9.389049 52.994065 -17.491580 27.396976 10.587504 0.000000 0.000000 0.000000 
-0.325744 92.068108 9.930004 0.000000 0.000000 0.000000 7.712593 -69.369293 9.039766 -35.404709 14.331600 21.831547 38.867331 -3.079339 0.113731 -8.337013 -1.000548 -11.427920 -0.699439 -0.007804 2.127280 0.000000 0.000000 0.000000 10.638622 -69.116317 11.421815 -27.837776 -3.501537 -26.088608 32.685426 -5.533892 -2.440430 -2.020755 -6.334244 17.237272 -3.460919 0.010046 2.762648 0.000000 0.000000 0.000000 8.684539 -65.669516 9.030057 15.439453 -0.411842 -3.670097 3.340910 -0.977767 -1.926149 0.412508 1.569373 0.384391 0.000000 0.000000 0.000000 2.317311 -1.275342 -1.765086 -4.719377 5.857620 0.841431 -12.918132 52.228353 -5.561684 0.000000 0.000000 0.000000 3.320483 -1.707390 -1.954840 2.721867 -5.065435 -10.480364 -4.129769 -3.831807 1.834738 -43.467102 26.778867 -29.904255 9.294383 -40.395187 9.527843 0.000000 0.000000 0.000000 3.796260 -1.047674 -1.700057 2.282808 7.929392 10.754252 2.310063 2.497487 -0.226236 -3.507931 -8.536143 52.635866 -16.313383 24.700486 9.427313 0.000000 0.000000 0.000000 
